# xmcd
#
# Track frame offsets: 
#        150
#        21869
#        41917
#        59370
#        90266
#        118583
#        135240
#        161092
#        177130
#        197900
#        220784
#        245541
#
# Disc length: 3513 seconds
#
# Revision: 2
# Processed by: cddbd v1.5.2PL0 Copyright (c) Steve Scherf et al.
# Submitted via: ExactAudioCopy v0.99pb5
#
DISCID=a00db70c
DTITLE=Master Charge feat. Matt Walsh  - Reloaded
DYEAR=2002
DGENRE=Acoustic Blues
TTITLE0=Don't Ask Me
TTITLE1=I'm In Love With You Baby
TTITLE2=Mind My Own Business
TTITLE3=Call On Me
TTITLE4=Way Down In Swampland
TTITLE5=Putting My Foot Right Down
TTITLE6=Lost In The Shadow
TTITLE7=Crazy Enough
TTITLE8=Red Headed Woman
TTITLE9=Backstage
TTITLE10=Ask Me Where I've Been
TTITLE11=Gold Train
EXTD=
EXTT0=
EXTT1=
EXTT2=
EXTT3=
EXTT4=
EXTT5=
EXTT6=
EXTT7=
EXTT8=
EXTT9=
EXTT10=
EXTT11=
PLAYORDER=
